<svg xmlns="http://www.w3.org/2000/svg" viewBox="0 0 32 32" width="128" height="128" shape-rendering="crispEdges">
  <!-- Rays — warm orange -->
  <rect x="14" y="0" width="4" height="5" fill="#EA580C" />
  <rect x="14" y="27" width="4" height="5" fill="#EA580C" />
  <rect x="0" y="14" width="5" height="4" fill="#EA580C" />
  <rect x="27" y="14" width="5" height="4" fill="#EA580C" />
  <!-- Diagonal rays -->
  <rect x="3" y="3" width="4" height="4" rx="1" fill="#F97316" />
  <rect x="25" y="3" width="4" height="4" rx="1" fill="#F97316" />
  <rect x="3" y="25" width="4" height="4" rx="1" fill="#F97316" />
  <rect x="25" y="25" width="4" height="4" rx="1" fill="#F97316" />
  <!-- Face — yellow circle -->
  <circle cx="16" cy="16" r="10" fill="#FACC15" />
  <!-- Top highlight -->
  <ellipse cx="14" cy="11" rx="5" ry="3" fill="#FDE047" opacity="0.5" />
  <!-- Eyes — happy squint -->
  <rect x="10" y="13" width="4" height="2" rx="1" fill="#78350F" />
  <rect x="18" y="13" width="4" height="2" rx="1" fill="#78350F" />
  <!-- Smile -->
  <path d="M11,19 Q16,24 21,19" fill="none" stroke="#78350F" stroke-width="1.8" stroke-linecap="round" />
</svg>
