<svg xmlns="http://www.w3.org/2000/svg" viewBox="0 0 32 32" width="128" height="128" shape-rendering="crispEdges">
  <!-- Book binding — purple -->
  <rect x="6" y="22" width="20" height="6" rx="1" fill="#7C3AED" />
  <rect x="4" y="24" width="24" height="4" fill="#6D28D9" />
  <!-- Left page — pink -->
  <rect x="3" y="6" width="13" height="18" fill="#F472B6" />
  <rect x="4" y="7" width="11" height="16" fill="#FBCFE8" />
  <!-- Right page — pink -->
  <rect x="16" y="6" width="13" height="18" fill="#F472B6" />
  <rect x="17" y="7" width="11" height="16" fill="#FBCFE8" />
  <!-- Spine -->
  <rect x="15" y="5" width="2" height="20" fill="#BE185D" />
  <!-- Page lines — left -->
  <rect x="6" y="10" width="8" height="1" fill="#F9A8D4" />
  <rect x="6" y="13" width="8" height="1" fill="#F9A8D4" />
  <rect x="6" y="16" width="6" height="1" fill="#F9A8D4" />
  <!-- Star symbol — right page -->
  <circle cx="23" cy="14" r="3" fill="none" stroke="#BE185D" stroke-width="1.5" />
  <circle cx="23" cy="14" r="1" fill="#BE185D" />
  <!-- Sparkles -->
  <rect x="1" y="2" width="2" height="2" fill="#FDE047" opacity="0.8" />
  <rect x="29" y="3" width="2" height="2" fill="#FDE047" opacity="0.6" />
  <rect x="0" y="14" width="2" height="2" fill="#FDE047" opacity="0.9" />
  <rect x="30" y="11" width="2" height="2" fill="#FDE047" opacity="0.5" />
</svg>
